<svg class="lds-gear-set" width="64px"  height="64px"  xmlns="http://www.w3.org/2000/svg" xmlns:xlink="http://www.w3.org/1999/xlink" viewBox="0 0 100 100" preserveAspectRatio="xMidYMid" style="background: none;"><g transform="translate(50 50)"> <g transform="translate(-17 -17) scale(0.5)"> <g transform="rotate(271.989)">
<animateTransform attributeName="transform" type="rotate" values="0;360" keyTimes="0;1" dur="3s" begin="0s" repeatCount="indefinite"></animateTransform><path d="M39.54743986657037 -6 L49.54743986657037 -6 L49.54743986657037 6 L39.54743986657037 6 A40 40 0 0 1 34.15182220748741 20.824337682341053 L34.15182220748741 20.824337682341053 L41.812266638677194 27.252213779206446 L34.09881532243872 36.44474709663418 L26.43837089124894 30.01687099976879 A40 40 0 0 1 12.776187382295705 37.90473632638101 L12.776187382295705 37.90473632638101 L14.512669158965009 47.752813856503096 L2.6949761228185194 49.83659198850626 L0.9584943461492152 39.988514458384174 A40 40 0 0 1 -14.57756751057855 37.24908757908742 L-14.57756751057855 37.24908757908742 L-19.577567510578547 45.90934161693181 L-29.969872355991807 39.90934161693181 L-24.96987235599181 31.249087579087423 A40 40 0 0 1 -35.11031655363662 19.164176776043117 L-35.11031655363662 19.164176776043117 L-44.507242761495704 22.584378209299807 L-48.61148448140373 11.308066759868915 L-39.21455827354465 7.887865326612226 A40 40 0 0 1 -39.21455827354465 -7.887865326612216 L-39.21455827354465 -7.887865326612216 L-48.61148448140373 -11.308066759868902 L-44.507242761495704 -22.584378209299796 L-35.11031655363662 -19.16417677604311 A40 40 0 0 1 -24.969872355991846 -31.249087579087398 L-24.969872355991846 -31.249087579087398 L-29.96987235599185 -39.90934161693178 L-19.57756751057856 -45.9093416169318 L-14.57756751057856 -37.249087579087416 A40 40 0 0 1 0.9584943461491789 -39.988514458384174 L0.9584943461491789 -39.988514458384174 L2.6949761228184785 -49.83659198850626 L14.512669158965004 -47.752813856503096 L12.776187382295705 -37.90473632638101 A40 40 0 0 1 26.43837089124892 -30.01687099976881 L26.43837089124892 -30.01687099976881 L34.098815322438696 -36.4447470966342 L41.812266638677194 -27.25221377920645 L34.15182220748741 -20.824337682341056 A40 40 0 0 1 39.54743986657037 -6.000000000000024 M0 -28A28 28 0 1 0 0 28 A28 28 0 1 0 0 -28" fill="#df6512"></path></g></g> <g transform="translate(0 22) scale(0.4)"> <g transform="rotate(68.0109)">
<animateTransform attributeName="transform" type="rotate" values="360;0" keyTimes="0;1" dur="3s" begin="-0.16666666666666666s" repeatCount="indefinite"></animateTransform><path d="M39.54743986657037 -6 L49.54743986657037 -6 L49.54743986657037 6 L39.54743986657037 6 A40 40 0 0 1 34.15182220748741 20.824337682341053 L34.15182220748741 20.824337682341053 L41.812266638677194 27.252213779206446 L34.09881532243872 36.44474709663418 L26.43837089124894 30.01687099976879 A40 40 0 0 1 12.776187382295705 37.90473632638101 L12.776187382295705 37.90473632638101 L14.512669158965009 47.752813856503096 L2.6949761228185194 49.83659198850626 L0.9584943461492152 39.988514458384174 A40 40 0 0 1 -14.57756751057855 37.24908757908742 L-14.57756751057855 37.24908757908742 L-19.577567510578547 45.90934161693181 L-29.969872355991807 39.90934161693181 L-24.96987235599181 31.249087579087423 A40 40 0 0 1 -35.11031655363662 19.164176776043117 L-35.11031655363662 19.164176776043117 L-44.507242761495704 22.584378209299807 L-48.61148448140373 11.308066759868915 L-39.21455827354465 7.887865326612226 A40 40 0 0 1 -39.21455827354465 -7.887865326612216 L-39.21455827354465 -7.887865326612216 L-48.61148448140373 -11.308066759868902 L-44.507242761495704 -22.584378209299796 L-35.11031655363662 -19.16417677604311 A40 40 0 0 1 -24.969872355991846 -31.249087579087398 L-24.969872355991846 -31.249087579087398 L-29.96987235599185 -39.90934161693178 L-19.57756751057856 -45.9093416169318 L-14.57756751057856 -37.249087579087416 A40 40 0 0 1 0.9584943461491789 -39.988514458384174 L0.9584943461491789 -39.988514458384174 L2.6949761228184785 -49.83659198850626 L14.512669158965004 -47.752813856503096 L12.776187382295705 -37.90473632638101 A40 40 0 0 1 26.43837089124892 -30.01687099976881 L26.43837089124892 -30.01687099976881 L34.098815322438696 -36.4447470966342 L41.812266638677194 -27.25221377920645 L34.15182220748741 -20.824337682341056 A40 40 0 0 1 39.54743986657037 -6.000000000000024 M0 -28A28 28 0 1 0 0 28 A28 28 0 1 0 0 -28" fill="#001e57"></path></g></g> <g transform="translate(28 4) scale(0.3)"> <g transform="rotate(291.989)">
<animateTransform attributeName="transform" type="rotate" values="0;360" keyTimes="0;1" dur="3s" begin="-0.16666666666666666s" repeatCount="indefinite"></animateTransform><path d="M39.54743986657037 -6 L49.54743986657037 -6 L49.54743986657037 6 L39.54743986657037 6 A40 40 0 0 1 34.15182220748741 20.824337682341053 L34.15182220748741 20.824337682341053 L41.812266638677194 27.252213779206446 L34.09881532243872 36.44474709663418 L26.43837089124894 30.01687099976879 A40 40 0 0 1 12.776187382295705 37.90473632638101 L12.776187382295705 37.90473632638101 L14.512669158965009 47.752813856503096 L2.6949761228185194 49.83659198850626 L0.9584943461492152 39.988514458384174 A40 40 0 0 1 -14.57756751057855 37.24908757908742 L-14.57756751057855 37.24908757908742 L-19.577567510578547 45.90934161693181 L-29.969872355991807 39.90934161693181 L-24.96987235599181 31.249087579087423 A40 40 0 0 1 -35.11031655363662 19.164176776043117 L-35.11031655363662 19.164176776043117 L-44.507242761495704 22.584378209299807 L-48.61148448140373 11.308066759868915 L-39.21455827354465 7.887865326612226 A40 40 0 0 1 -39.21455827354465 -7.887865326612216 L-39.21455827354465 -7.887865326612216 L-48.61148448140373 -11.308066759868902 L-44.507242761495704 -22.584378209299796 L-35.11031655363662 -19.16417677604311 A40 40 0 0 1 -24.969872355991846 -31.249087579087398 L-24.969872355991846 -31.249087579087398 L-29.96987235599185 -39.90934161693178 L-19.57756751057856 -45.9093416169318 L-14.57756751057856 -37.249087579087416 A40 40 0 0 1 0.9584943461491789 -39.988514458384174 L0.9584943461491789 -39.988514458384174 L2.6949761228184785 -49.83659198850626 L14.512669158965004 -47.752813856503096 L12.776187382295705 -37.90473632638101 A40 40 0 0 1 26.43837089124892 -30.01687099976881 L26.43837089124892 -30.01687099976881 L34.098815322438696 -36.4447470966342 L41.812266638677194 -27.25221377920645 L34.15182220748741 -20.824337682341056 A40 40 0 0 1 39.54743986657037 -6.000000000000024 M0 -28A28 28 0 1 0 0 28 A28 28 0 1 0 0 -28" fill="#027688"></path></g></g></g></svg>